<svg>
	<defs>
		<g id="addSelect"><path d="M19 13h-6v6h-2v-6H5v-2h6V5h2v6h6v2z"/></g>
		<g id="fileIcon">
			<path d="M16.5 6v11.5c0 2.21-1.79 4-4 4s-4-1.79-4-4V5c0-1.38 1.12-2.5 2.5-2.5s2.5 1.12 2.5 2.5v10.5c0 .55-.45 1-1 1s-1-.45-1-1V6H10v9.5c0 1.38 1.12 2.5 2.5 2.5s2.5-1.12 2.5-2.5V5c0-2.21-1.79-4-4-4S7 2.79 7 5v12.5c0 3.04 2.46 5.5 5.5 5.5s5.5-2.46 5.5-5.5V6h-1.5z"/>
    
		</g>
		<g id="calendarx">
			<path d="M19 3h-1V1h-2v2H8V1H6v2H5c-1.11 0-1.99.9-1.99 2L3 19c0 1.1.89 2 2 2h14c1.1 0 2-.9 2-2V5c0-1.1-.9-2-2-2zm0 16H5V8h14v11zM7 10h5v5H7z"></path>
		</g>

		<g id="sync">
			 <path d="M12 4V1L8 5l4 4V6c3.31 0 6 2.69 6 6 0 1.01-.25 1.97-.7 2.8l1.46 1.46C19.54 15.03 20 13.57 20 12c0-4.42-3.58-8-8-8zm0 14c-3.31 0-6-2.69-6-6 0-1.01.25-1.97.7-2.8L5.24 7.74C4.46 8.97 4 10.43 4 12c0 4.42 3.58 8 8 8v3l4-4-4-4v3z"/>
   
		</g>
		<g id="remove">
			 <path d="M12 2C6.48 2 2 6.48 2 12s4.48 10 10 10 10-4.48 10-10S17.52 2 12 2zm5 11H7v-2h10v2z"/>
		</g>
		<g id="arrowleft">
			<path d="M15.41 16.09l-4.58-4.59 4.58-4.59L14 5.5l-6 6 6 6z"/>
		</g>

		<g id="arrowright">
			<path d="M8.59 16.34l4.58-4.59-4.58-4.59L10 5.75l6 6-6 6z"/>
		</g>
		<g id="excel">
			<svg xmlns="http://www.w3.org/2000/svg" xmlns:xlink="http://www.w3.org/1999/xlink" version="1.0" x="0px" y="0px" viewBox="0 0 24 24" class="icon icons8-MS-Excel" >    <path d="M 14 2 L 2 4 L 2 20 L 14 22 L 14 2 z M 15 4 L 15 7 L 17 7 L 17 8 L 15 8 L 15 10 L 17 10 L 17 11 L 15 11 L 15 13 L 17 13 L 17 14 L 15 14 L 15 16 L 17 16 L 17 17 L 15 17 L 15 20 L 20 20 C 21.105 20 22 19.105 22 18 L 22 6 C 22 4.895 21.105 4 20 4 L 15 4 z M 18 7 L 20 7 L 20 8 L 18 8 L 18 7 z M 4.21875 8 L 6.28125 8 L 7.34375 10.40625 C 7.43075 10.60125 7.4945 10.8055 7.5625 11.0625 L 7.59375 11.0625 C 7.63275 10.9085 7.72675 10.683 7.84375 10.375 L 9.03125 8 L 10.9375 8 L 8.6875 11.96875 L 11 16 L 8.96875 16 L 7.6875 13.40625 C 7.6385 13.31425 7.57925 13.10075 7.53125 12.84375 L 7.5 12.84375 C 7.471 12.96675 7.43175 13.15925 7.34375 13.40625 L 6.03125 16 L 4 16 L 6.40625 12 L 4.21875 8 z M 18 10 L 20 10 L 20 11 L 18 11 L 18 10 z M 18 13 L 20 13 L 20 14 L 18 14 L 18 13 z M 18 16 L 20 16 L 20 17 L 18 17 L 18 16 z"></path></svg>
		</g>
		<g id="mapoint">
			<svg xmlns="http://www.w3.org/2000/svg" width="24" height="24" viewBox="0 0 24 24"><path d="M12 0c-3.148 0-6 2.553-6 5.702 0 4.682 4.783 5.177 6 12.298 1.217-7.121 6-7.616 6-12.298 0-3.149-2.851-5.702-6-5.702zm0 8c-1.105 0-2-.895-2-2s.895-2 2-2 2 .895 2 2-.895 2-2 2zm12 16l-6.707-2.427-5.293 2.427-5.581-2.427-6.419 2.427 4-9 3.96-1.584c.38.516.741 1.08 1.061 1.729l-3.523 1.41-1.725 3.88 2.672-1.01 1.506-2.687-.635 3.044 4.189 1.789.495-2.021.465 2.024 4.15-1.89-.618-3.033 1.572 2.896 2.732.989-1.739-3.978-3.581-1.415c.319-.65.681-1.215 1.062-1.731l4.021 1.588 3.936 9z"/></svg>
		</g>
		<g id="clean">
			  <path fill="#000000" d="M19.36,2.72L20.78,4.14L15.06,9.85C16.13,11.39 16.28,13.24 15.38,14.44L9.06,8.12C10.26,7.22 12.11,7.37 13.65,8.44L19.36,2.72M5.93,17.57C3.92,15.56 2.69,13.16 2.35,10.92L7.23,8.83L14.67,16.27L12.58,21.15C10.34,20.81 7.94,19.58 5.93,17.57Z" />
		</g>
		<g id="pdf">
			<path d="M14,9H19.5L14,3.5V9M7,2H15L21,8V20A2,2 0 0,1 19,22H7C5.89,22 5,21.1 5,20V4A2,2 0 0,1 7,2M11.93,12.44C12.34,13.34 12.86,14.08 13.46,14.59L13.87,14.91C13,15.07 11.8,15.35 10.53,15.84V15.84L10.42,15.88L10.92,14.84C11.37,13.97 11.7,13.18 11.93,12.44M18.41,16.25C18.59,16.07 18.68,15.84 18.69,15.59C18.72,15.39 18.67,15.2 18.57,15.04C18.28,14.57 17.53,14.35 16.29,14.35L15,14.42L14.13,13.84C13.5,13.32 12.93,12.41 12.53,11.28L12.57,11.14C12.9,9.81 13.21,8.2 12.55,7.54C12.39,7.38 12.17,7.3 11.94,7.3H11.7C11.33,7.3 11,7.69 10.91,8.07C10.54,9.4 10.76,10.13 11.13,11.34V11.35C10.88,12.23 10.56,13.25 10.05,14.28L9.09,16.08L8.2,16.57C7,17.32 6.43,18.16 6.32,18.69C6.28,18.88 6.3,19.05 6.37,19.23L6.4,19.28L6.88,19.59L7.32,19.7C8.13,19.7 9.05,18.75 10.29,16.63L10.47,16.56C11.5,16.23 12.78,16 14.5,15.81C15.53,16.32 16.74,16.55 17.5,16.55C17.94,16.55 18.24,16.44 18.41,16.25M18,15.54L18.09,15.65C18.08,15.75 18.05,15.76 18,15.78H17.96L17.77,15.8C17.31,15.8 16.6,15.61 15.87,15.29C15.96,15.19 16,15.19 16.1,15.19C17.5,15.19 17.9,15.44 18,15.54M8.83,17C8.18,18.19 7.59,18.85 7.14,19C7.19,18.62 7.64,17.96 8.35,17.31L8.83,17M11.85,10.09C11.62,9.19 11.61,8.46 11.78,8.04L11.85,7.92L12,7.97C12.17,8.21 12.19,8.53 12.09,9.07L12.06,9.23L11.9,10.05L11.85,10.09Z" />
		</g>
		<g id="tree_view">
			<path d="M3,3H9V7H3V3M15,10H21V14H15V10M15,17H21V21H15V17M13,13H7V18H13V20H7L5,20V9H7V11H13V13Z" />
		</g>

		<g id="search_select">
			<path d="M15.5 14h-.79l-.28-.27C15.41 12.59 16 11.11 16 9.5 16 5.91 13.09 3 9.5 3S3 5.91 3 9.5 5.91 16 9.5 16c1.61 0 3.09-.59 4.23-1.57l.27.28v.79l5 4.99L20.49 19l-4.99-5zm-6 0C7.01 14 5 11.99 5 9.5S7.01 5 9.5 5 14 7.01 14 9.5 11.99 14 9.5 14z"/>
    
		</g>
		<g id="close">
			 <path d="M19 6.41L17.59 5 12 10.59 6.41 5 5 6.41 10.59 12 5 17.59 6.41 19 12 13.41 17.59 19 19 17.59 13.41 12z"/>
		</g>
		<g id="check">
			<path d="M9 16.17L4.83 12l-1.42 1.41L9 19 21 7l-1.41-1.41z"/>
		</g>

		<g id="group">
			<path d="M16 11c1.66 0 2.99-1.34 2.99-3S17.66 5 16 5c-1.66 0-3 1.34-3 3s1.34 3 3 3zm-8 0c1.66 0 2.99-1.34 2.99-3S9.66 5 8 5C6.34 5 5 6.34 5 8s1.34 3 3 3zm0 2c-2.33 0-7 1.17-7 3.5V19h14v-2.5c0-2.33-4.67-3.5-7-3.5zm8 0c-.29 0-.62.02-.97.05 1.16.84 1.97 1.97 1.97 3.45V19h6v-2.5c0-2.33-4.67-3.5-7-3.5z"/>
		</g>

		<g id="restore">
			<path d="M7 8V5l-7 7 7 7v-3l-4-4 4-4zm6 1V5l-7 7 7 7v-4.1c5 0 8.5 1.6 11 5.1-1-5-4-10-11-11z">
		</g>

		<g id="unselect">
			<path d="M0 0h24v24H0z" fill="none"/>
			<path d="M12 2C6.48 2 2 6.48 2 12s4.48 10 10 10 10-4.48 10-10S17.52 2 12 2zm0 18c-4.42 0-8-3.58-8-8 0-1.85.63-3.55 1.69-4.9L16.9 18.31C15.55 19.37 13.85 20 12 20zm6.31-3.1L7.1 5.69C8.45 4.63 10.15 4 12 4c4.42 0 8 3.58 8 8 0 1.85-.63 3.55-1.69 4.9z"/>
		</g>
		<g id="list-requisitos">
			<path d="M14 10H2v2h12v-2zm0-4H2v2h12V6zM2 16h8v-2H2v2zm19.5-4.5L23 13l-6.99 7-4.51-4.5L13 14l3.01 3 5.49-5.5z">
		</g>

		<g id="delete_forever">
			<path d="M6 19c0 1.1.9 2 2 2h8c1.1 0 2-.9 2-2V7H6v12zm2.46-7.12l1.41-1.41L12 12.59l2.12-2.12 1.41 1.41L13.41 14l2.12 2.12-1.41 1.41L12 15.41l-2.12 2.12-1.41-1.41L10.59 14l-2.13-2.12zM15.5 4l-1-1h-5l-1 1H5v2h14V4z"/>
		</g>

		<g id="cancel">
			<path d="M12 2C6.47 2 2 6.47 2 12s4.47 10 10 10 10-4.47 10-10S17.53 2 12 2zm5 13.59L15.59 17 12 13.41 8.41 17 7 15.59 10.59 12 7 8.41 8.41 7 12 10.59 15.59 7 17 8.41 13.41 12 17 15.59z"/>

		</g>
		<g id="add_circle">
			 <path d="M12 2C6.48 2 2 6.48 2 12s4.48 10 10 10 10-4.48 10-10S17.52 2 12 2zm5 11h-4v4h-2v-4H7v-2h4V7h2v4h4v2z"/>
		</g>
		<g id="wc">
			 <path d="M5.5 22v-7.5H4V9c0-1.1.9-2 2-2h3c1.1 0 2 .9 2 2v5.5H9.5V22h-4zM18 22v-6h3l-2.54-7.63C18.18 7.55 17.42 7 16.56 7h-.12c-.86 0-1.63.55-1.9 1.37L12 16h3v6h3zM7.5 6c1.11 0 2-.89 2-2s-.89-2-2-2-2 .89-2 2 .89 2 2 2zm9 0c1.11 0 2-.89 2-2s-.89-2-2-2-2 .89-2 2 .89 2 2 2z"/>
		</g>

		<g id="search">
			<path d="M15.5 14h-.79l-.28-.27C15.41 12.59 16 11.11 16 9.5 16 5.91 13.09 3 9.5 3S3 5.91 3 9.5 5.91 16 9.5 16c1.61 0 3.09-.59 4.23-1.57l.27.28v.79l5 4.99L20.49 19l-4.99-5zm-6 0C7.01 14 5 11.99 5 9.5S7.01 5 9.5 5 14 7.01 14 9.5 11.99 14 9.5 14z"/>
		</g>

		<g id="group">
			 <path d="M16 11c1.66 0 2.99-1.34 2.99-3S17.66 5 16 5c-1.66 0-3 1.34-3 3s1.34 3 3 3zm-8 0c1.66 0 2.99-1.34 2.99-3S9.66 5 8 5C6.34 5 5 6.34 5 8s1.34 3 3 3zm0 2c-2.33 0-7 1.17-7 3.5V19h14v-2.5c0-2.33-4.67-3.5-7-3.5zm8 0c-.29 0-.62.02-.97.05 1.16.84 1.97 1.97 1.97 3.45V19h6v-2.5c0-2.33-4.67-3.5-7-3.5z"/>
		</g>

		<g id="person">
			<path d="M12 12c2.21 0 4-1.79 4-4s-1.79-4-4-4-4 1.79-4 4 1.79 4 4 4zm0 2c-2.67 0-8 1.34-8 4v2h16v-2c0-2.66-5.33-4-8-4z"/>
		</g>

		<g id="encryption">
			<path d="M18 8h-1V6c0-2.76-2.24-5-5-5S7 3.24 7 6v2H6c-1.1 0-2 .9-2 2v10c0 1.1.9 2 2 2h12c1.1 0 2-.9 2-2V10c0-1.1-.9-2-2-2zM8.9 6c0-1.71 1.39-3.1 3.1-3.1s3.1 1.39 3.1 3.1v2H8.9V6zM16 16h-3v3h-2v-3H8v-2h3v-3h2v3h3v2z"/>
		</g>
		<g id="pets">
			<circle cx="4.5" cy="9.5" r="2.5"/>
		    <circle cx="9" cy="5.5" r="2.5"/>
		    <circle cx="15" cy="5.5" r="2.5"/>
		    <circle cx="19.5" cy="9.5" r="2.5"/>
		    <path d="M17.34 14.86c-.87-1.02-1.6-1.89-2.48-2.91-.46-.54-1.05-1.08-1.75-1.32-.11-.04-.22-.07-.33-.09-.25-.04-.52-.04-.78-.04s-.53 0-.79.05c-.11.02-.22.05-.33.09-.7.24-1.28.78-1.75 1.32-.87 1.02-1.6 1.89-2.48 2.91-1.31 1.31-2.92 2.76-2.62 4.79.29 1.02 1.02 2.03 2.33 2.32.73.15 3.06-.44 5.54-.44h.18c2.48 0 4.81.58 5.54.44 1.31-.29 2.04-1.31 2.33-2.32.31-2.04-1.3-3.49-2.61-4.8z"/>
		</g>

		<g id="done">
			<path d="M9 16.2L4.8 12l-1.4 1.4L9 19 21 7l-1.4-1.4L9 16.2z"/>
		</g>

		<g id="language">
			<path d="M11.99 2C6.47 2 2 6.48 2 12s4.47 10 9.99 10C17.52 22 22 17.52 22 12S17.52 2 11.99 2zm6.93 6h-2.95c-.32-1.25-.78-2.45-1.38-3.56 1.84.63 3.37 1.91 4.33 3.56zM12 4.04c.83 1.2 1.48 2.53 1.91 3.96h-3.82c.43-1.43 1.08-2.76 1.91-3.96zM4.26 14C4.1 13.36 4 12.69 4 12s.1-1.36.26-2h3.38c-.08.66-.14 1.32-.14 2 0 .68.06 1.34.14 2H4.26zm.82 2h2.95c.32 1.25.78 2.45 1.38 3.56-1.84-.63-3.37-1.9-4.33-3.56zm2.95-8H5.08c.96-1.66 2.49-2.93 4.33-3.56C8.81 5.55 8.35 6.75 8.03 8zM12 19.96c-.83-1.2-1.48-2.53-1.91-3.96h3.82c-.43 1.43-1.08 2.76-1.91 3.96zM14.34 14H9.66c-.09-.66-.16-1.32-.16-2 0-.68.07-1.35.16-2h4.68c.09.65.16 1.32.16 2 0 .68-.07 1.34-.16 2zm.25 5.56c.6-1.11 1.06-2.31 1.38-3.56h2.95c-.96 1.65-2.49 2.93-4.33 3.56zM16.36 14c.08-.66.14-1.32.14-2 0-.68-.06-1.34-.14-2h3.38c.16.64.26 1.31.26 2s-.1 1.36-.26 2h-3.38z"/>
		</g>



		<g id="editar-file">

			<path d="M3 17.25V21h3.75L17.81 9.94l-3.75-3.75L3 17.25zM20.71 7.04c.39-.39.39-1.02 0-1.41l-2.34-2.34c-.39-.39-1.02-.39-1.41 0l-1.83 1.83 3.75 3.75 1.83-1.83z"/>
    		<path d="M0 0h24v24H0z" fill="none"/>
			
		</g>


		<g id="event_available">
			<path d="M16.53 11.06L15.47 10l-4.88 4.88-2.12-2.12-1.06 1.06L10.59 17l5.94-5.94zM19 3h-1V1h-2v2H8V1H6v2H5c-1.11 0-1.99.9-1.99 2L3 19c0 1.1.89 2 2 2h14c1.1 0 2-.9 2-2V5c0-1.1-.9-2-2-2zm0 16H5V8h14v11z"/>
		</g>

		<g id="event_busy">
			<path d="M9.31 17l2.44-2.44L14.19 17l1.06-1.06-2.44-2.44 2.44-2.44L14.19 10l-2.44 2.44L9.31 10l-1.06 1.06 2.44 2.44-2.44 2.44L9.31 17zM19 3h-1V1h-2v2H8V1H6v2H5c-1.11 0-1.99.9-1.99 2L3 19c0 1.1.89 2 2 2h14c1.1 0 2-.9 2-2V5c0-1.1-.9-2-2-2zm0 16H5V8h14v11z"/>
		</g>

		<g id="mode-comment">
			<path d="M21.99 4c0-1.1-.89-2-1.99-2H4c-1.1 0-2 .9-2 2v12c0 1.1.9 2 2 2h14l4 4-.01-18z"/>
    <path d="M0 0h24v24H0z" fill="none"/>
		</g>

		<g id="assignment_turned">
			<path d="M19 3h-4.18C14.4 1.84 13.3 1 12 1c-1.3 0-2.4.84-2.82 2H5c-1.1 0-2 .9-2 2v14c0 1.1.9 2 2 2h14c1.1 0 2-.9 2-2V5c0-1.1-.9-2-2-2zm-7 0c.55 0 1 .45 1 1s-.45 1-1 1-1-.45-1-1 .45-1 1-1zm-2 14l-4-4 1.41-1.41L10 14.17l6.59-6.59L18 9l-8 8z"/>
		</g>

		<g id="assignment_late">
			<path d="M19 3h-4.18C14.4 1.84 13.3 1 12 1c-1.3 0-2.4.84-2.82 2H5c-1.1 0-2 .9-2 2v14c0 1.1.9 2 2 2h14c1.1 0 2-.9 2-2V5c0-1.1-.9-2-2-2zm-6 15h-2v-2h2v2zm0-4h-2V8h2v6zm-1-9c-.55 0-1-.45-1-1s.45-1 1-1 1 .45 1 1-.45 1-1 1z"/>
		</g>


	</defs>
</svg>
